<svg width="512" height="512" viewBox="0 0 512 512" fill="none" xmlns="http://www.w3.org/2000/svg">
<g clip-path="url(#clip0_61_5)">
<rect x="3" y="38" width="473.325" height="473.325" transform="rotate(-4.21962 3 38)" fill="#FFF200"/>
<path d="M154.79 92.9958C158.781 91.5302 161.111 91.3583 165.273 92.2224C169.976 92.461 173.685 95.1153 177.437 98.352C181.19 101.589 183.281 106.119 184.336 112.483C187.157 126.914 199.99 205.607 206.966 252.525C208.947 263.505 210.26 273.363 210.26 273.363C210.26 273.363 212.46 271.444 214.036 268.986C218.891 263.357 229.183 252.057 235.289 247.508C255.139 230.818 274.726 226.445 294.051 234.388C309.71 240.26 320.513 251.76 327.54 267.638C332.391 277.821 338.726 300.192 341.051 315.831C343.29 330.305 345.763 355.889 345.696 362.921C345.63 369.953 344.03 380.026 342.216 387.187C341.266 390.185 341.438 392.514 341.696 396.009C342.384 405.327 339.319 411.409 332.717 417.167C324.41 423.636 313.258 423.287 304.546 416.317C296.416 409.304 293.852 398.367 298.989 388.619C299.982 386.203 300.975 383.788 300.932 383.205C300.889 382.623 300.373 375.634 300.397 368.02C299.948 353.999 298.076 336.569 294.825 316.313C292.801 304.751 291.292 300.178 288.619 295.69C282.604 285.593 269.404 281.297 259.889 287.269C245.305 295.958 231.337 336.808 228.435 376.842C227.915 385.665 227.757 407.343 228.273 414.332C228.445 416.662 228.703 420.156 229.457 422.443C230.966 427.016 231.223 430.511 230.402 435.256C228.545 441.835 224.812 446.795 218.081 450.805C213.594 453.478 205.979 453.454 200.566 451.512C194.569 449.612 190.149 445.253 186.721 438.479C181.957 429.461 180.018 419.063 176.6 380.667C173.158 349.885 170.598 323.136 168.23 306.915C165.003 279.045 154.691 210.706 146.25 159.797C143.257 143.036 140.263 126.275 139.962 122.198C138.024 111.8 138.802 106.473 144.197 100.219C146.894 97.0919 150.756 93.879 154.79 92.9958Z" fill="black"/>
<path d="M354.835 103.944C354.681 103.944 352.557 104.019 349.227 105.283C345.577 106.668 347.003 116.304 347.67 124.902C347.941 128.395 349.67 129.906 351.657 130.712C353.644 131.518 356.243 131.518 358.343 130.8C362.329 129.437 364.53 124.739 366.09 119.377C366.925 116.508 366.744 113.074 365.616 110.964C364.489 108.854 362.138 108.104 359.87 107.67C357.602 107.236 355.488 107.141 354.328 108.388C353.168 109.635 353.027 112.227 353.524 114.479C354.022 116.732 355.162 118.566 356.808 119.745C358.454 120.924 360.571 121.391 362.552 120.953C364.532 120.514 366.313 119.155 367.379 117.36C368.445 115.566 368.743 113.377 367.732 111.876C361.759 103.011 346.297 109.555 343.009 111.866C341.385 115.641 340.994 120.647 341.572 125.966C342.15 128.595 343.306 131.081 348.288 134.944" stroke="black" stroke-width="42" stroke-linecap="round"/>
</g>
<rect x="3.53543" y="38.4619" width="472.325" height="472.325" transform="rotate(-4.21962 3.53543 38.4619)" stroke="#5D0000" stroke-opacity="0.2"/>
<defs>
<clipPath id="clip0_61_5">
<rect x="3" y="38" width="473.325" height="473.325" transform="rotate(-4.21962 3 38)" fill="white"/>
</clipPath>
</defs>
</svg>
